# AST/ASF file generated using VICON BodyLanguage
# -----------------------------------------------
:version 1.10
:name VICON
:units
  mass 1.0
  length 0.45
  angle deg
:documentation
   .ast/.asf automatically generated from VICON data using
   VICON BodyBuilder and BodyLanguage model FoxedUp or BRILLIANT.MOD
:root
   order TX TY TZ RX RY RZ
   axis XYZ
   position 0 0 0  
   orientation 0 -0 0 
:bonedata
  begin
     id 1 
     name lhipjoint
     direction 0.500677 -0.737119 0.453848 
     length 2.34727 
     axis 0 -0 0  XYZ
  end
  begin
     id 2 
     name lfemur
     direction 0.34202 -0.939693 0  
     length 7.53653  
     axis 0 -0 20  XYZ
    dof rx ry rz
    limits (-160.0 20.0)
           (-70.0 70.0)
           (-60.0 70.0)
  end
  begin
     id 3 
     name ltibia
     direction 0.34202 -0.939693 0   
     length 6.85572   
     axis 0 -0 20   XYZ
    dof rx
    limits (-10.0 170.0)
  end
  begin
     id 4 
     name lfoot
     direction 0.155313 -0.426718 0.890949   
     length 2.18324   
     axis -90 -1.13533e-015 20   XYZ
    dof rx rz
    limits (-45.0 90.0)
           (-70.0 20.0)
  end
  begin
     id 5 
     name ltoes
     direction 1.53474e-011 -4.21647e-011 1   
     length 1.06748   
     axis -90 -1.13533e-015 20   XYZ
    dof rx
    limits (-90.0 20.0)
  end
  begin
     id 6 
     name rhipjoint
     direction -0.632471 -0.659587 0.406111   
     length 2.62319  
     axis 0 -0 0  XYZ 
  end
  begin
     id 7 
     name rfemur
     direction -0.34202 -0.939693 0   
     length 7.21735   
     axis 0 -0 -20   XYZ
    dof rx ry rz
    limits (-160.0 20.0)
           (-70.0 70.0)
           (-70.0 60.0)
  end
  begin
     id 8 
     name rtibia
     direction -0.34202 -0.939693 0   
     length 7.02558   
     axis 0 -0 -20   XYZ
    dof rx
    limits (-10.0 170.0)
 end
 begin
     id 9 
     name rfoot
     direction -0.16057 -0.441164 0.882945   
     length 2.10014  
     axis -90 1.13533e-015 -20   XYZ
    dof rx rz
    limits (-45.0 90.0)
           (-20.0 70.0)
  end
  begin
     id 10 
     name rtoes
     direction -1.53553e-011 -4.2192e-011 1   
     length 1.02554   
     axis -90 1.13533e-015 -20   XYZ
    dof rx
    limits (-90.0 20.0)
  end
  begin
     id 11 
     name lowerback
     direction 0.0401429 0.998861 -0.0258085   
     length 1.80848   
     axis 0 -0 0   XYZ
    dof rx ry rz
    limits (-20.0 45.0)
           (-30.0 30.0)
           (-30.0 30.0)
  end
  begin
     id 12 
     name upperback
     direction -0.0130978 0.999914 -0.000352645   
     length 1.8116   
     axis 0 -0 0   XYZ
    dof rx ry rz
    limits (-20.0 45.0)
           (-30.0 30.0)
           (-30.0 30.0)
  end
  begin
     id 13 
     name thorax
     direction -0.0300198 0.999453 0.0138573   
     length 1.81778   
     axis 0 -0 0   XYZ
    dof rx ry rz
    limits (-20.0 45.0)
           (-30.0 30.0)
           (-30.0 30.0)
  end
  begin
     id 14 
     name lowerneck
     direction -0.0401726 0.999191 -0.00173647   
     length 2.10594   
     axis 0 -0 0   XYZ
    dof rx ry rz
    limits (-20.0 45.0)
           (-30.0 30.0)
           (-30.0 30.0)
  end
  begin
     id 15 
     name upperneck
     direction 0.0119835 0.998501 0.0534085   
     length 2.07325   
     axis 0 -0 0   XYZ
    dof rx ry rz
    limits (-20.0 45.0)
           (-30.0 30.0)
           (-30.0 30.0)
  end
  begin
     id 16
     name head
     direction 0.00628309 0.999826 0.0175921  
     length 2.15096  
     axis 0 -0 0   XYZ
    dof rx ry rz
    limits (-20.0 45.0)
           (-30.0 30.0)
           (-30.0 30.0)
  end
  begin
     id 17 
     name lclavicle
     direction 0.895501 0.429681 -0.115981  
     length 4.18092  
     axis 0 -0 0   XYZ
    dof ry rz
    limits (-20.0 10.0)
           (0.0 20.0)
  end
  begin
     id 18 
     name lhumerus
     direction 1 -4.48961e-011 -3.38433e-028   
     length 5.77237   
     axis 180 -30 -90   XYZ
    dof rx ry rz
    limits (-60.0 90.0)
           (-90.0 90.0)
           (-90.0 90.0)
  end
  begin
     id 19
     name lradius
     direction 1 -4.4901e-011 1.11983e-026   
     length 2.91878   
     axis 180 -30 -90   XYZ
    dof rx
    limits (-10.0 170.0)
  end
  begin
     id 20
     name lwrist
     direction 1 -4.48934e-011 1.88176e-026   
     length 1.45939   
     axis -1.23311e-014 90 90   XYZ
    dof ry
    limits (-180.0 0.0)
 end
  begin
     id 21 
     name lhand
     direction 1 -4.4895e-011 3.76352e-026   
     length 1.06566   
     axis -2.40147e-014 90 90   XYZ
    dof rx rz
    limits (-90.0 90.0)
           (-45.0 45.0)
  end
  begin
     id 22 
     name lfingers
     direction 1 -4.49005e-011 7.52705e-026   
     length 0.859162   
     axis -4.80295e-014 90 90   XYZ
    dof rx
    limits (0.0 90.0)
  end
  begin
     id 23
     name lthumb
     direction 0.707107 -6.34885e-011 0.707107   
     length 1.23359   
     axis -90 45 -9.86935e-015   XYZ
    dof rx rz
    limits (-45.0 45.0)
           (-45.0 45.0)
  end
  begin
     id 24 
     name rclavicle
     direction -0.91006 0.40451 -0.0903492   
     length 4.23293  
     axis 0 -0 0   XYZ 
    dof ry rz
    limits (-10.0 20.0)
           (-20.0 0.0)
  end
  begin
     id 25 
     name rhumerus
     direction -1 -4.4897e-011 1.7415e-027  
     length 5.49854   
     axis 180 30 90   XYZ
    dof rx ry rz
    limits (-90.0 60.0)
           (-90.0 90.0)
           (-90.0 90.0)
  end
  begin
     id 26 
     name rradius
     direction -1 -4.48963e-011 1.21259e-026   
     length 3.1186   
     axis 180 30 90   XYZ
    dof rx
    limits (-10.0 170.0)
  end
  begin
     id 27 
     name rwrist
     direction -1 -4.48967e-011 1.88176e-026   
     length 1.5593   
     axis -1.23311e-014 -90 -90   XYZ
    dof ry
    limits (-180.0 0.0)
  end
  begin
     id 28
     name rhand
     direction -1 -4.4895e-011 3.76352e-026   
     length 0.71207   
     axis -2.40147e-014 -90 -90   XYZ
    dof rx rz
    limits (-90.0 90.0)
           (-45.0 45.0)
  end
  begin
     id 29
     name rfingers
     direction -1 -4.49005e-011 7.52705e-026   
     length 0.574089   
     axis -4.80295e-014 -90 -90   XYZ
    dof rx
    limits (0.0 90.0)
  end
  begin
     id 30
     name rthumb
     direction -0.707107 -6.34982e-011 0.707107   
     length 0.824281   
     axis -90 -45 9.86935e-015   XYZ
    dof rx rz
    limits (-45.0 45.0)
           (-45.0 45.0)
  end
:hierarchy
  begin
    root lhipjoint rhipjoint lowerback
    lhipjoint lfemur
    lfemur ltibia
    ltibia lfoot
    lfoot ltoes
    rhipjoint rfemur
    rfemur rtibia
    rtibia rfoot
    rfoot rtoes
    lowerback upperback
    upperback thorax
    thorax lowerneck lclavicle rclavicle
    lowerneck upperneck
    upperneck head
    lclavicle lhumerus
    lhumerus lradius
    lradius lwrist
    lwrist lhand lthumb
    lhand lfingers
    rclavicle rhumerus
    rhumerus rradius
    rradius rwrist
    rwrist rhand rthumb
    rhand rfingers
  end

#!OML:ASF C:\ViconDB\ViconDB\414\Spring2016\042216\male.ASF
:FULLY-SPECIFIED
:DEGREES
44
root -44.8733 16.992 13.5032 -161.306 85.7719 -161.506
lowerback -2.92181 -1.76983 4.24652
upperback -0.189946 -2.48709 -0.586083
thorax 1.23548 -1.21751 -3.07609
lowerneck -1.68598 2.63817 -3.69818
upperneck -0.977822 3.60254 3.52617
head -0.155933 1.81966 1.72719
rclavicle 3.13428e-014 -4.07509e-015
rhumerus -31.9715 -10.7885 -87.5768
rradius 29.0558
rwrist 46.7439
rhand 25.5868 -32.0798
rfingers 7.12502
rthumb 49.6994 -53.4589
lclavicle 3.13428e-014 -4.07509e-015
lhumerus -37.3691 15.2537 86.8305
lradius 34.5921
lwrist -9.57596
lhand 10.0157 13.0311
lfingers 7.12502
lthumb 35.1412 39.554
rfemur -10.9771 -1.76407 20.3731
rtibia 27.8825
rfoot -19.0383 2.77889
rtoes -7.10831
lfemur -9.80135 -1.95962 -18.3447
ltibia 28.5929
lfoot -28.3984 8.0313
ltoes -15.7562
45
root -44.8752 16.9915 13.5049 -160.81 85.814 -161
lowerback -2.89893 -1.75241 4.24582
upperback -0.202196 -2.46261 -0.577318
thorax 1.21253 -1.20601 -3.06475
lowerneck -1.5598 2.67039 -3.74721
upperneck -1.17709 3.64882 3.69166
head -0.245102 1.84258 1.78535
rclavicle 1.77105e-014 1.09332e-015
rhumerus -31.9458 -10.6658 -87.6849
rradius 29.1589
rwrist 47.0165
rhand 25.9354 -32.0184
rfingers 7.12502
rthumb 50.0186 -53.2314
lclavicle 1.77105e-014 1.09332e-015
lhumerus -37.3702 15.089 86.9962
lradius 34.4728
lwrist -10.1969
lhand 8.85621 13.5874
lfingers 7.12502
lthumb 34.0407 40.3622
rfemur -10.9802 -1.76348 20.4024
rtibia 27.8792
rfoot -19.0122 2.83039
rtoes -7.52345
lfemur -9.78404 -1.94315 -18.3124
ltibia 28.5778
lfoot -28.3848 8.07063
ltoes -15.7143
46
root -44.8758 16.9927 13.5061 -160.43 85.8782 -160.638
lowerback -2.95925 -1.74523 4.29291
upperback -0.184952 -2.45727 -0.616087
thorax 1.26086 -1.20164 -3.13358
lowerneck -1.57657 2.81922 -3.96449
upperneck -1.23185 3.85857 4.16906
head -0.282559 1.94925 1.978
rclavicle 2.06705e-014 5.56597e-015
rhumerus -31.8506 -10.5254 -87.9386
rradius 29.2304
rwrist 47.6493
rhand 26.1141 -32.2688
rfingers 7.12502
rthumb 50.182 -53.3954
lclavicle 2.06705e-014 5.56597e-015
lhumerus -37.3342 14.8933 87.0864
lradius 34.4309
lwrist -10.625
lhand 8.52302 13.9941
lfingers 7.12502
lthumb 33.7242 40.8387
rfemur -11.0181 -1.71972 20.4109
rtibia 27.8807
rfoot -19.0282 2.83332
rtoes -7.81565
lfemur -9.78138 -2.00689 -18.3034
ltibia 28.5618
lfoot -28.4005 8.14195
ltoes -15.674
47
root -44.8774 16.9943 13.5052 -160.019 85.9021 -160.275
lowerback -2.97357 -1.74264 4.29825
upperback -0.224642 -2.45391 -0.586454
thorax 1.22939 -1.20125 -3.10556
lowerneck -1.47885 2.85872 -4.03872
upperneck -1.3999 3.91548 4.2769
head -0.358054 1.97728 2.0231
rclavicle -2.98798e-015 0
rhumerus -31.8565 -10.2456 -88.0746
rradius 29.4056
rwrist 47.5751
rhand 26.4602 -32.0878
rfingers 7.12502
rthumb 50.4983 -53.0449
lclavicle -2.98798e-015 0
lhumerus -37.3648 14.7006 87.2806
lradius 34.405
lwrist -10.9682
lhand 8.30788 14.1228
lfingers 7.12502
lthumb 33.5197 41.0119
rfemur -11.0968 -1.84399 20.4244
rtibia 27.8819
rfoot -19.0941 2.96643
rtoes -7.98262
lfemur -9.82434 -2.09795 -18.2896
ltibia 28.5445
lfoot -28.3849 8.21639
ltoes -15.5735
48
root -44.8775 16.994 13.5077 -160.112 85.9702 -160.347
lowerback -2.95719 -1.74722 4.23461
upperback -0.226623 -2.45742 -0.563201
thorax 1.22156 -1.20357 -3.04539
lowerneck -1.36898 2.86772 -4.13157
upperneck -1.62413 3.93287 4.35518
head -0.4514 1.98552 2.06157
rclavicle 2.10898e-015 6.55989e-015
rhumerus -31.8176 -9.89522 -88.2672
rradius 29.5499
rwrist 47.1765
rhand 26.7252 -32.093
rfingers 7.12502
rthumb 50.7402 -52.9183
lclavicle 2.10898e-015 6.55989e-015
lhumerus -37.3769 14.6696 87.3788
lradius 34.3396
lwrist -11.4193
lhand 8.21452 14.0475
lfingers 7.12502
lthumb 33.431 40.9558
rfemur -11.0709 -1.78071 20.3993
rtibia 27.8788
rfoot -19.1257 2.98671
rtoes -7.92128
lfemur -9.79227 -2.00422 -18.3107
ltibia 28.5285
lfoot -28.3982 8.22185
ltoes -15.7408
49
root -44.877 16.9956 13.5098 -160.375 86.0334 -160.622
lowerback -2.99526 -1.74834 4.19464
upperback -0.220655 -2.45934 -0.572686
thorax 1.25013 -1.20398 -3.03439
lowerneck -1.23759 2.81214 -4.08492
upperneck -1.91689 3.86171 4.2846
head -0.559414 1.94885 2.02633
rclavicle -1.20731e-014 -1.26228e-014
rhumerus -31.7525 -9.73196 -88.4607
rradius 29.6952
rwrist 47.0352
rhand 26.9941 -32.0181
rfingers 7.12502
rthumb 50.9854 -52.7077
lclavicle -1.20731e-014 -1.26228e-014
lhumerus -37.3774 14.5834 87.4181
lradius 34.3159
lwrist -11.6266
lhand 8.10676 14.0771
lfingers 7.12502
lthumb 33.3285 41.0074
rfemur -11.0889 -1.86383 20.3617
rtibia 27.882
rfoot -19.1916 3.10553
rtoes -7.97633
lfemur -9.78599 -1.9663 -18.3382
ltibia 28.5143
lfoot -28.4267 8.20373
ltoes -15.6448
50
root -44.878 16.996 13.5079 -160.252 86.0325 -160.561
lowerback -3.05579 -1.75655 4.25072
upperback -0.243889 -2.47417 -0.575051
thorax 1.25643 -1.21121 -3.07048
lowerneck -1.16207 2.80573 -4.15419
upperneck -2.0643 3.8575 4.371
head -0.621878 1.94643 2.06488
rclavicle 1.05729e-014 -3.8763e-015
rhumerus -31.706 -9.54669 -88.6587
rradius 29.7606
rwrist 47.0052
rhand 27.1529 -32.0274
rfingers 7.12502
rthumb 51.1301 -52.6359
lclavicle 1.05729e-014 -3.8763e-015
lhumerus -37.3853 14.4401 87.4735
lradius 34.32
lwrist -11.6792
lhand 8.01213 14.1929
lfingers 7.12502
lthumb 33.2386 41.1425
rfemur -11.1868 -2.09252 20.3504
rtibia 27.9038
rfoot -19.1899 3.30186
rtoes -7.91298
lfemur -9.84944 -2.07466 -18.3468
ltibia 28.4911
lfoot -28.3374 8.31232
ltoes -15.5283
51
root -44.8772 16.9946 13.5097 -160.391 86.0825 -160.668
lowerback -3.04978 -1.7594 4.24109
upperback -0.225772 -2.47772 -0.587194
thorax 1.27128 -1.21244 -3.07791
lowerneck -1.15963 2.8146 -4.23356
upperneck -2.14216 3.87497 4.48475
head -0.652062 1.9556 2.11575
rclavicle -2.94574e-014 5.56597e-015
rhumerus -31.6575 -9.27229 -88.9253
rradius 29.7627
rwrist 47.4003
rhand 27.259 -31.613
rfingers 7.12502
rthumb 51.2266 -52.167
lclavicle -2.94574e-014 5.56597e-015
lhumerus -37.3727 14.331 87.4831
lradius 34.3157
lwrist -11.638
lhand 8.11764 14.1367
lfingers 7.12502
lthumb 33.3389 41.0648
rfemur -11.1679 -2.13881 20.3303
rtibia 27.9283
rfoot -19.2092 3.36533
rtoes -8.25045
lfemur -9.7868 -2.07058 -18.3693
ltibia 28.4684
lfoot -28.3341 8.35533
ltoes -15.5847
52
root -44.8761 16.9944 13.5123 -160.549 86.1396 -160.804
lowerback -3.05172 -1.75988 4.18886
upperback -0.214642 -2.4771 -0.57762
thorax 1.28651 -1.21191 -3.03909
lowerneck -1.20013 2.83068 -4.33169
upperneck -2.12228 3.9003 4.59213
head -0.644945 1.96914 2.16926
rclavicle 1.85506e-014 -3.37934e-015
rhumerus -31.5618 -8.91343 -89.2243
rradius 29.8097
rwrist 46.7221
rhand 27.037 -31.4321
rfingers 7.12502
rthumb 51.0245 -52.0998
lclavicle 1.85506e-014 -3.37934e-015
lhumerus -37.3771 14.1987 87.5139
lradius 34.3047
lwrist -11.6606
lhand 7.92057 14.1578
lfingers 7.12502
lthumb 33.1515 41.126
rfemur -11.1606 -2.24063 20.302
rtibia 27.9561
rfoot -19.2556 3.52924
rtoes -7.9601
lfemur -9.73902 -1.83838 -18.3775
ltibia 28.4428
lfoot -28.3697 8.2388
ltoes -15.5858
